<svg xmlns="http://www.w3.org/2000/svg" viewBox="0 0 512 512"><g data-name="图层 2"><g data-name="图层 1"><path d="M76 332H61c-33.1 0-61-26.9-61-60s27.9-60 61-60h15a15 15 0 0 1 15 15v90a15 15 0 0 1-15 15ZM451 332h-15a15 15 0 0 1-15-15v-90a15 15 0 0 1 15-15h15c33.1 0 61 26.9 61 60s-27.9 60-61 60Zm0-30Z" fill="#ffbdb0"/><path d="M451 197v60H61v-60C61 89.6 148.6 0 256 0s195 89.6 195 197Z" fill="#5a5a5a"/><path d="M451 197v60H256V0c107.4 0 195 89.6 195 197Z" fill="#444"/><path d="M451 257v60c0 107.4-87.6 195-195 195S61 424.4 61 317v-60a14.85 14.85 0 0 1 15-15 44.94 44.94 0 0 0 45-45 75 75 0 0 1 75-75h120a75 75 0 0 1 75 75 44.94 44.94 0 0 0 45 45 14.85 14.85 0 0 1 15 15Z" fill="#ffd0c5"/><path d="M451 257v60c0 107.4-87.6 195-195 195V122h60a75 75 0 0 1 75 75 44.94 44.94 0 0 0 45 45 14.85 14.85 0 0 1 15 15Z" fill="#ffbdb0"/><path d="M436 242H76a14.85 14.85 0 0 0-15 15v60a75 75 0 0 0 75 75h51.6a44.63 44.63 0 0 0 43.5-34.2l6.6-25.8h36.6l6.6 25.8a44.63 44.63 0 0 0 43.5 34.2H376a75 75 0 0 0 75-75v-60a14.85 14.85 0 0 0-15-15Z" fill="#a8ebfa"/><path d="M451 257v60a75 75 0 0 1-75 75h-51.6a44.63 44.63 0 0 1-43.5-34.2l-6.6-25.8H256v-90h180a14.85 14.85 0 0 1 15 15Z" fill="#25d9f8"/><path d="M308.5 441.5a152.72 152.72 0 0 1-25.2 7.8 139.37 139.37 0 0 1-54.6 0 152.72 152.72 0 0 1-25.2-7.8 15.34 15.34 0 0 1-8.1-19.8 15.61 15.61 0 0 1 19.8-8.1 113.66 113.66 0 0 0 19.5 6.3A100.6 100.6 0 0 0 256 422a95.91 95.91 0 0 0 21-2.1 108.82 108.82 0 0 0 19.8-6.3 15.61 15.61 0 0 1 19.8 8.1 15.34 15.34 0 0 1-8.1 19.8Z" fill="#ec806b"/><path d="M316.6 421.7a15.34 15.34 0 0 1-8.1 19.8 152.72 152.72 0 0 1-25.2 7.8A138.12 138.12 0 0 1 256 452v-30a95.91 95.91 0 0 0 21-2.1 108.82 108.82 0 0 0 19.8-6.3 15.61 15.61 0 0 1 19.8 8.1Z" fill="#d96c57"/></g></g></svg>