<svg xmlns="http://www.w3.org/2000/svg" width="28" height="23"><g fill="none" fill-rule="evenodd"><path fill="#F4F6FD" d="M27.563 0H.438A.438.438 0 0 0 0 .438v21.437c0 .242.196.438.438.438h27.125a.438.438 0 0 0 .437-.438V.437A.438.438 0 0 0 27.562 0z"/><path fill="#778E9F" d="M1.313 21.875V.437c0-.241.195-.437.437-.437H.437A.438.438 0 0 0 0 .438v21.437c0 .242.196.438.438.438H1.75a.438.438 0 0 1-.438-.438z" opacity=".11"/><path fill="#36596E" d="M27.563 0H.438A.438.438 0 0 0 0 .438V3.5h28V.437A.438.438 0 0 0 27.562 0z" opacity=".66"/><path fill="#FFF" d="M1.75 0H.437A.438.438 0 0 0 0 .438V3.5h1.313V.437c0-.241.195-.437.437-.437z" opacity=".3"/><g fill="#FFF" opacity=".4" transform="translate(22.75 1.313)"><circle cx="1.75" cy=".7" r="1"/><circle cx=".438" cy=".7" r="1"/><circle cx="3.063" cy=".7" r="1"/></g><path fill="#F9CE3A" d="M13.563 5.25h-10.5a.438.438 0 0 0-.438.438V19.25c0 .242.196.438.438.438h10.5A.438.438 0 0 0 14 19.25V5.687a.438.438 0 0 0-.438-.437z" opacity=".66"/><path fill="#EC715B" d="M24.938 5.25H15.75a.438.438 0 0 0-.438.438V10.5c0 .242.196.438.438.438h9.188a.438.438 0 0 0 .437-.438V5.687a.438.438 0 0 0-.438-.437z" opacity=".66"/><path fill="#209FFF" d="M24.938 12.25H15.75a.438.438 0 0 0-.438.438v6.562c0 .242.196.438.438.438h9.188a.438.438 0 0 0 .437-.438v-6.563a.438.438 0 0 0-.438-.437z" opacity=".2"/></g></svg>